<svg width="314" height="314" viewBox="0 0 314 314" fill="none" xmlns="http://www.w3.org/2000/svg">
<rect width="314" height="314" fill="#00FFC2"/>
<path d="M211.807 75.1823C221.459 75.1823 229.842 67.6549 230.974 58.1661C233.269 59.0951 235.953 60.6572 238.032 63.0818L238.057 63.111L238.084 63.1381C240.522 65.5765 242.188 68.8583 243.03 73.4907L243.035 73.5166L243.041 73.5423C244.968 81.6802 245.516 95.6031 245.462 108.997C245.41 121.846 244.805 134.091 244.373 140.02C244.32 140.045 244.273 140.069 244.234 140.089L244.219 140.096C244.101 140.155 244.04 140.184 243.989 140.204C243.984 140.205 243.98 140.207 243.977 140.208H243.769L243.552 140.321L221.953 151.552C221.78 151.586 221.621 151.649 221.479 151.734C221.45 151.752 221.421 151.771 221.395 151.789C211.722 145.741 183.028 126.278 170.698 115.225C165.604 110.52 163.112 104.385 163.501 98.1838C165.524 98.8126 167.784 99.12 170.024 99.12C180.587 99.12 189.304 90.4029 189.304 79.8403C189.304 69.2777 180.587 60.5606 170.024 60.5606C159.462 60.5606 150.745 69.2777 150.745 79.8403C150.745 84.7245 152.468 88.7525 155.444 92.2938C152.968 103.375 156.597 114.403 164.984 122.348L164.994 122.357L165.003 122.366C177.906 133.979 205.524 152.719 216.816 159.566C216.793 159.644 216.766 159.728 216.734 159.824L216.725 159.849C216.617 160.174 216.465 160.63 216.465 161.229C216.465 165.036 218.364 168.82 221.671 171.182L221.696 171.2L221.722 171.216L242.613 184.273L242.654 184.298L242.696 184.32L242.806 184.375C244.182 185.063 245.741 185.843 247.362 186.088C247.238 201.287 243.978 225.165 226.751 243.232L226.75 243.234C210.443 260.399 184.632 269.893 157.03 268.168L157.022 268.167L157.014 268.167C129.407 266.873 105.768 255.233 91.6124 236.359L91.6083 236.353C80.0281 221.127 76.5768 203.516 76.3071 188.684C76.0437 174.199 78.8175 162.437 79.9468 158.297C94.456 157.826 106.175 145.816 106.175 131.198C106.175 116.283 93.976 104.084 79.0611 104.084C64.1462 104.084 51.9473 116.283 51.9473 131.198C51.9473 143.055 59.6337 153.642 70.8758 157.128C67.2581 170.786 59.8427 210.519 84.3581 242.351C100.236 263.518 126.645 276.244 156.91 277.998L156.939 278H156.968H156.98H156.993H157.006H157.018H157.031H157.044H157.057H157.069H157.082H157.095H157.107H157.12H157.132H157.145H157.158H157.17H157.183H157.195H157.208H157.221H157.233H157.246H157.258H157.271H157.283H157.296H157.308H157.321H157.333H157.346H157.358H157.371H157.383H157.396H157.408H157.42H157.433H157.445H157.458H157.47H157.482H157.495H157.507H157.519H157.532H157.544H157.556H157.569H157.581H157.593H157.606H157.618H157.63H157.643H157.655H157.667H157.679H157.692H157.704H157.716H157.728H157.74H157.753H157.765H157.777H157.789H157.801H157.814H157.826H157.838H157.85H157.862H157.874H157.886H157.899H157.911H157.923H157.935H157.947H157.959H157.971H157.983H157.995H158.007H158.019H158.031H158.043H158.055H158.067H158.079H158.091H158.103H158.115H158.127H158.139H158.151H158.163H158.175H158.187H158.199H158.211H158.223H158.235H158.247H158.259H158.271H158.283H158.295H158.307H158.318H158.33H158.342H158.354H158.366H158.378H158.39H158.402H158.413H158.425H158.437H158.449H158.461H158.473H158.484H158.496H158.508H158.52H158.532H158.543H158.555H158.567H158.579H158.591H158.602H158.614H158.626H158.638H158.649H158.661H158.673H158.685H158.696H158.708H158.72H158.731H158.743H158.755H158.767H158.778H158.79H158.802H158.813H158.825H158.837H158.848H158.86H158.872H158.883H158.895H158.907H158.918H158.93H158.942H158.953H158.965H158.977H158.988H159H159.011H159.023H159.035H159.046H159.058H159.07H159.081H159.093H159.104H159.116H159.128H159.139H159.151H159.162H159.174H159.185H159.197H159.209H159.22H159.232H159.243H159.255H159.266H159.278H159.29H159.301H159.313H159.324H159.336H159.347H159.359H159.37H159.382H159.393H159.405H159.416H159.428H159.44H159.451H159.463H159.474H159.486H159.497H159.509H159.52H159.532H159.543H159.555H159.566H159.578H159.589H159.601H159.612H159.624H159.635H159.647H159.658H159.67H159.681H159.693H159.704H159.716H159.727H159.739H159.75H159.762H159.773H159.785H159.796H159.808H159.819H159.83H159.842H159.853H159.865H159.876H159.888H159.899H159.911H159.922H159.934H159.945H159.957H159.968H159.98H159.991H160.003H160.014H160.026H160.037H160.049H160.06H160.072H160.083H160.094H160.106H160.117H160.129H160.14H160.152H160.163H160.175H160.186H160.198H160.209H160.221H160.232H160.244H160.255H160.267H160.278H160.29H160.301H160.313H160.324H160.336H160.347H160.359H160.37H160.382H160.393H160.405H160.416H160.428H160.439H160.451H160.462H160.474H160.485H160.497H160.508H160.52H160.531H160.543H160.554H160.566H160.577H160.589H160.6H160.612H160.623H160.635H160.646H160.658H160.669H160.681H160.693H160.704H160.716H160.727H160.739H160.75H160.762H160.773H160.785H160.797H160.808H160.82H160.831H160.843H160.854H160.866H160.878H160.889H160.901H160.912H160.924H160.936H160.947H160.959H160.97H160.982H160.994H161.005H161.017H161.028H161.04H161.052H161.063H161.075H161.087H161.098H161.11H161.122H161.133H161.145H161.157H161.168H161.18H161.192H161.203H161.215H161.227H161.238H161.25H161.262H161.273H161.285H161.297H161.309H161.32H161.332H161.344H161.355H161.367H161.379H161.391H161.402H161.414H161.426H161.438H161.449H161.461H161.473H161.485H161.497H161.508H161.52H161.532H161.544H161.556H161.567H161.579H161.591H161.603H161.615H161.627H161.639H161.65H161.662H161.674H161.686H161.698H161.71H161.722H161.734H161.745H161.757H161.769H161.781H161.793H161.805H161.817H161.829H161.841H161.853H161.865H161.877H161.889H161.901H161.913H161.925H161.937H161.949H161.961H161.973H161.985H161.997H162.009H162.021H162.033H162.045H162.057H162.069H162.081H162.093H162.105H162.118H162.13H162.142H162.154H162.166H162.178H162.19H162.202H162.215H162.227H162.239H162.251H162.263H162.276H162.288H162.3H162.312H162.324H162.337H162.349H162.361H162.373H162.386H162.398H162.41H162.423H162.435H162.447H162.459H162.472H162.484H162.496H162.509H162.521H162.534H162.546H162.558H162.571H162.583H162.595H162.608H162.62H162.633H162.645H162.658H162.67H162.683H162.695H162.707H162.72H162.732H162.745H162.757H162.77H162.783H162.795H162.808H162.82H162.833H162.845H162.858H162.871H162.883H162.896H162.908H162.921H162.934H162.946H162.959H162.972H162.984H162.997H163.01H163.023H163.035H163.048H163.061C191.144 278 217.101 267.908 234.293 249.834L234.296 249.831C255.271 227.545 258.026 198.376 257.646 182.511C259.377 180.632 260.237 178.347 260.668 175.756L260.679 175.692L260.681 175.627L261.552 151.254L261.559 151.054L261.489 150.867C260.158 147.318 258.339 144.08 255.101 141.743C254.789 141.451 254.479 141.296 254.274 141.194L254.254 141.184C254.232 141.173 254.211 141.163 254.192 141.153C254.627 135.02 255.242 122.423 255.242 109.11C255.242 95.4119 254.593 80.8365 252.387 71.7824C251.045 65.5312 248.359 60.5936 245.202 56.985L245.193 56.975L245.184 56.9652C239.998 51.3469 233.19 49.0567 229.511 48.0936C226.607 41.4261 219.43 36.6229 211.807 36.6229C201.244 36.6229 192.527 45.34 192.527 55.9026C192.527 66.4652 201.244 75.1823 211.807 75.1823ZM69.6156 132.068C69.6156 127.369 73.5481 123.058 78.6259 123.058C83.7316 123.058 87.6362 126.962 87.6362 132.068C87.6362 136.767 83.7037 141.078 78.6259 141.078C73.5481 141.078 69.6156 136.767 69.6156 132.068Z" fill="#1C003F" stroke="black" stroke-width="2"/>
</svg>
