<svg width="213" height="244" viewBox="0 0 213 244" fill="none" xmlns="http://www.w3.org/2000/svg">
<path d="M161.807 40.1823C171.459 40.1823 179.842 32.6549 180.974 23.1661C183.269 24.0951 185.953 25.6572 188.032 28.0818L188.057 28.111L188.084 28.1381C190.522 30.5765 192.188 33.8583 193.03 38.4907L193.035 38.5166L193.041 38.5423C194.968 46.6802 195.516 60.6031 195.462 73.9967C195.41 86.846 194.805 99.0912 194.373 105.02C194.32 105.045 194.273 105.069 194.234 105.089L194.219 105.096C194.101 105.155 194.04 105.184 193.989 105.204C193.984 105.205 193.98 105.207 193.977 105.208H193.769L193.552 105.321L171.953 116.552C171.78 116.586 171.621 116.649 171.479 116.734C171.45 116.752 171.421 116.771 171.395 116.789C161.722 110.741 133.028 91.278 120.698 80.225C115.604 75.5204 113.112 69.3847 113.501 63.1838C115.524 63.8126 117.784 64.12 120.024 64.12C130.587 64.12 139.304 55.4029 139.304 44.8403C139.304 34.2777 130.587 25.5606 120.024 25.5606C109.462 25.5606 100.745 34.2777 100.745 44.8403C100.745 49.7245 102.468 53.7525 105.444 57.2938C102.968 68.375 106.597 79.4028 114.984 87.3484L114.994 87.3572L115.003 87.3658C127.906 98.9787 155.524 117.719 166.816 124.566C166.793 124.644 166.766 124.728 166.734 124.824L166.725 124.849C166.617 125.174 166.465 125.63 166.465 126.229C166.465 130.036 168.364 133.82 171.671 136.182L171.696 136.2L171.722 136.216L192.613 149.273L192.654 149.298L192.696 149.32L192.806 149.375C194.182 150.063 195.741 150.843 197.362 151.088C197.238 166.287 193.978 190.165 176.751 208.232L176.75 208.234C160.443 225.399 134.632 234.893 107.03 233.168L107.022 233.167L107.014 233.167C79.4071 231.873 55.7677 220.233 41.6124 201.359L41.6083 201.353C30.0281 186.127 26.5768 168.516 26.3071 153.684C26.0437 139.199 28.8175 127.437 29.9468 123.297C44.456 122.826 56.175 110.816 56.175 96.1976C56.175 81.2827 43.976 69.0837 29.0611 69.0837C14.1462 69.0837 1.94727 81.2827 1.94727 96.1976C1.94727 108.055 9.63369 118.642 20.8758 122.128C17.2581 135.786 9.84275 175.519 34.3581 207.351C50.2356 228.518 76.645 241.244 106.91 242.998L106.939 243H106.968H106.98H106.993H107.006H107.018H107.031H107.044H107.057H107.069H107.082H107.095H107.107H107.12H107.132H107.145H107.158H107.17H107.183H107.195H107.208H107.221H107.233H107.246H107.258H107.271H107.283H107.296H107.308H107.321H107.333H107.346H107.358H107.371H107.383H107.396H107.408H107.42H107.433H107.445H107.458H107.47H107.482H107.495H107.507H107.519H107.532H107.544H107.556H107.569H107.581H107.593H107.606H107.618H107.63H107.643H107.655H107.667H107.679H107.692H107.704H107.716H107.728H107.74H107.753H107.765H107.777H107.789H107.801H107.814H107.826H107.838H107.85H107.862H107.874H107.886H107.899H107.911H107.923H107.935H107.947H107.959H107.971H107.983H107.995H108.007H108.019H108.031H108.043H108.055H108.067H108.079H108.091H108.103H108.115H108.127H108.139H108.151H108.163H108.175H108.187H108.199H108.211H108.223H108.235H108.247H108.259H108.271H108.283H108.295H108.307H108.318H108.33H108.342H108.354H108.366H108.378H108.39H108.402H108.413H108.425H108.437H108.449H108.461H108.473H108.484H108.496H108.508H108.52H108.532H108.543H108.555H108.567H108.579H108.591H108.602H108.614H108.626H108.638H108.649H108.661H108.673H108.685H108.696H108.708H108.72H108.731H108.743H108.755H108.767H108.778H108.79H108.802H108.813H108.825H108.837H108.848H108.86H108.872H108.883H108.895H108.907H108.918H108.93H108.942H108.953H108.965H108.977H108.988H109H109.011H109.023H109.035H109.046H109.058H109.07H109.081H109.093H109.104H109.116H109.128H109.139H109.151H109.162H109.174H109.185H109.197H109.209H109.22H109.232H109.243H109.255H109.266H109.278H109.29H109.301H109.313H109.324H109.336H109.347H109.359H109.37H109.382H109.393H109.405H109.416H109.428H109.44H109.451H109.463H109.474H109.486H109.497H109.509H109.52H109.532H109.543H109.555H109.566H109.578H109.589H109.601H109.612H109.624H109.635H109.647H109.658H109.67H109.681H109.693H109.704H109.716H109.727H109.739H109.75H109.762H109.773H109.785H109.796H109.808H109.819H109.83H109.842H109.853H109.865H109.876H109.888H109.899H109.911H109.922H109.934H109.945H109.957H109.968H109.98H109.991H110.003H110.014H110.026H110.037H110.049H110.06H110.072H110.083H110.094H110.106H110.117H110.129H110.14H110.152H110.163H110.175H110.186H110.198H110.209H110.221H110.232H110.244H110.255H110.267H110.278H110.29H110.301H110.313H110.324H110.336H110.347H110.359H110.37H110.382H110.393H110.405H110.416H110.428H110.439H110.451H110.462H110.474H110.485H110.497H110.508H110.52H110.531H110.543H110.554H110.566H110.577H110.589H110.6H110.612H110.623H110.635H110.646H110.658H110.669H110.681H110.693H110.704H110.716H110.727H110.739H110.75H110.762H110.773H110.785H110.797H110.808H110.82H110.831H110.843H110.854H110.866H110.878H110.889H110.901H110.912H110.924H110.936H110.947H110.959H110.97H110.982H110.994H111.005H111.017H111.028H111.04H111.052H111.063H111.075H111.087H111.098H111.11H111.122H111.133H111.145H111.157H111.168H111.18H111.192H111.203H111.215H111.227H111.238H111.25H111.262H111.273H111.285H111.297H111.309H111.32H111.332H111.344H111.355H111.367H111.379H111.391H111.402H111.414H111.426H111.438H111.449H111.461H111.473H111.485H111.497H111.508H111.52H111.532H111.544H111.556H111.567H111.579H111.591H111.603H111.615H111.627H111.639H111.65H111.662H111.674H111.686H111.698H111.71H111.722H111.734H111.745H111.757H111.769H111.781H111.793H111.805H111.817H111.829H111.841H111.853H111.865H111.877H111.889H111.901H111.913H111.925H111.937H111.949H111.961H111.973H111.985H111.997H112.009H112.021H112.033H112.045H112.057H112.069H112.081H112.093H112.105H112.118H112.13H112.142H112.154H112.166H112.178H112.19H112.202H112.215H112.227H112.239H112.251H112.263H112.276H112.288H112.3H112.312H112.324H112.337H112.349H112.361H112.373H112.386H112.398H112.41H112.423H112.435H112.447H112.459H112.472H112.484H112.496H112.509H112.521H112.534H112.546H112.558H112.571H112.583H112.595H112.608H112.62H112.633H112.645H112.658H112.67H112.683H112.695H112.707H112.72H112.732H112.745H112.757H112.77H112.783H112.795H112.808H112.82H112.833H112.845H112.858H112.871H112.883H112.896H112.908H112.921H112.934H112.946H112.959H112.972H112.984H112.997H113.01H113.023H113.035H113.048H113.061C141.144 243 167.101 232.908 184.293 214.834L184.296 214.831C205.271 192.545 208.026 163.376 207.646 147.511C209.377 145.632 210.237 143.347 210.668 140.756L210.679 140.692L210.681 140.627L211.552 116.254L211.559 116.054L211.489 115.867C210.158 112.318 208.339 109.08 205.101 106.743C204.789 106.451 204.479 106.296 204.274 106.194L204.254 106.184C204.232 106.173 204.211 106.163 204.192 106.153C204.627 100.02 205.242 87.4232 205.242 74.1096C205.242 60.4119 204.593 45.8365 202.387 36.7824C201.045 30.5312 198.359 25.5936 195.202 21.985L195.193 21.975L195.184 21.9652C189.998 16.3469 183.19 14.0567 179.511 13.0936C176.607 6.42615 169.43 1.62288 161.807 1.62288C151.244 1.62288 142.527 10.34 142.527 20.9026C142.527 31.4652 151.244 40.1823 161.807 40.1823ZM19.6156 97.068C19.6156 92.3692 23.5481 88.0577 28.6259 88.0577C33.7316 88.0577 37.6362 91.9623 37.6362 97.068C37.6362 101.767 33.7037 106.078 28.6259 106.078C23.5481 106.078 19.6156 101.767 19.6156 97.068Z" fill="#1C003F" stroke="black" stroke-width="2"/>
</svg>
