<svg width="239" height="239" viewBox="0 0 239 239" fill="none" xmlns="http://www.w3.org/2000/svg">
<path d="M170.546 44.0722C179.447 44.0722 187.181 37.1588 188.277 28.4221C190.362 29.2794 192.78 30.7029 194.657 32.8925L194.682 32.9216L194.709 32.9488C196.942 35.1825 198.472 38.1916 199.246 42.4489L199.25 42.4748L199.256 42.5004C201.03 49.9905 201.536 62.8137 201.486 75.1588C201.438 86.9671 200.883 98.2217 200.486 103.701C200.453 103.717 200.423 103.732 200.397 103.745L200.384 103.752C200.276 103.805 200.224 103.831 200.182 103.847H199.985L199.768 103.959L179.871 114.306C179.706 114.34 179.556 114.4 179.42 114.481C179.407 114.489 179.394 114.497 179.381 114.506C170.426 108.902 144.051 91.0074 132.71 80.8413C128.059 76.5454 125.773 70.9536 126.097 65.2975C127.946 65.8599 130.001 66.1345 132.037 66.1345C141.815 66.1345 149.885 58.0653 149.885 48.287C149.885 38.5086 141.815 30.4394 132.037 30.4394C122.259 30.4394 114.189 38.5086 114.189 48.287C114.189 52.7959 115.777 56.5167 118.514 59.7855C116.243 70.0142 119.599 80.1897 127.338 87.5216L127.347 87.5304L127.357 87.539C139.234 98.2289 164.628 115.464 175.07 121.802C175.053 121.856 175.034 121.915 175.012 121.98L175.004 122.003C174.904 122.304 174.76 122.734 174.76 123.299C174.76 126.834 176.523 130.345 179.592 132.536L179.617 132.554L179.643 132.571L198.897 144.605L198.938 144.63L198.98 144.651L199.088 144.705C200.332 145.328 201.753 146.038 203.237 146.278C203.114 160.281 200.094 182.22 184.263 198.824L184.261 198.825C169.25 214.627 145.486 223.37 120.065 221.782L120.058 221.781L120.05 221.781C94.6248 220.589 72.861 209.869 59.8309 192.496L59.8268 192.49C49.1672 178.475 45.9887 162.261 45.7403 148.602C45.499 135.326 48.0279 124.533 49.077 120.673C62.4648 120.207 73.2682 109.117 73.2682 95.6206C73.2682 81.8309 61.9899 70.5527 48.2003 70.5527C34.4106 70.5527 23.1323 81.8309 23.1323 95.6206C23.1323 106.557 30.2056 116.326 40.5613 119.572C37.2188 132.233 30.4454 168.801 53.0198 198.113C67.6697 217.643 92.0332 229.38 119.945 230.998L119.974 231H120.003H120.015H120.026H120.038H120.05H120.062H120.073H120.085H120.097H120.108H120.12H120.132H120.143H120.155H120.167H120.178H120.19H120.201H120.213H120.225H120.236H120.248H120.259H120.271H120.282H120.294H120.306H120.317H120.329H120.34H120.352H120.363H120.375H120.386H120.397H120.409H120.42H120.432H120.443H120.455H120.466H120.478H120.489H120.5H120.512H120.523H120.534H120.546H120.557H120.569H120.58H120.591H120.603H120.614H120.625H120.636H120.648H120.659H120.67H120.682H120.693H120.704H120.715H120.727H120.738H120.749H120.76H120.772H120.783H120.794H120.805H120.816H120.828H120.839H120.85H120.861H120.872H120.883H120.895H120.906H120.917H120.928H120.939H120.95H120.961H120.972H120.984H120.995H121.006H121.017H121.028H121.039H121.05H121.061H121.072H121.083H121.094H121.105H121.116H121.127H121.138H121.149H121.16H121.171H121.182H121.193H121.204H121.215H121.226H121.237H121.248H121.259H121.27H121.281H121.292H121.303H121.314H121.325H121.336H121.347H121.357H121.368H121.379H121.39H121.401H121.412H121.423H121.434H121.445H121.455H121.466H121.477H121.488H121.499H121.51H121.521H121.531H121.542H121.553H121.564H121.575H121.586H121.596H121.607H121.618H121.629H121.64H121.65H121.661H121.672H121.683H121.693H121.704H121.715H121.726H121.737H121.747H121.758H121.769H121.78H121.79H121.801H121.812H121.822H121.833H121.844H121.855H121.865H121.876H121.887H121.898H121.908H121.919H121.93H121.94H121.951H121.962H121.972H121.983H121.994H122.004H122.015H122.026H122.036H122.047H122.058H122.068H122.079H122.09H122.1H122.111H122.122H122.132H122.143H122.154H122.164H122.175H122.186H122.196H122.207H122.218H122.228H122.239H122.249H122.26H122.271H122.281H122.292H122.303H122.313H122.324H122.334H122.345H122.356H122.366H122.377H122.387H122.398H122.409H122.419H122.43H122.44H122.451H122.462H122.472H122.483H122.493H122.504H122.515H122.525H122.536H122.546H122.557H122.568H122.578H122.589H122.599H122.61H122.62H122.631H122.642H122.652H122.663H122.673H122.684H122.695H122.705H122.716H122.726H122.737H122.747H122.758H122.769H122.779H122.79H122.8H122.811H122.821H122.832H122.843H122.853H122.864H122.874H122.885H122.896H122.906H122.917H122.927H122.938H122.948H122.959H122.97H122.98H122.991H123.001H123.012H123.022H123.033H123.044H123.054H123.065H123.075H123.086H123.097H123.107H123.118H123.128H123.139H123.15H123.16H123.171H123.181H123.192H123.203H123.213H123.224H123.234H123.245H123.256H123.266H123.277H123.287H123.298H123.309H123.319H123.33H123.34H123.351H123.362H123.372H123.383H123.394H123.404H123.415H123.426H123.436H123.447H123.457H123.468H123.479H123.489H123.5H123.511H123.521H123.532H123.543H123.553H123.564H123.575H123.585H123.596H123.607H123.617H123.628H123.639H123.649H123.66H123.671H123.681H123.692H123.703H123.714H123.724H123.735H123.746H123.756H123.767H123.778H123.789H123.799H123.81H123.821H123.832H123.842H123.853H123.864H123.875H123.885H123.896H123.907H123.918H123.928H123.939H123.95H123.961H123.972H123.982H123.993H124.004H124.015H124.026H124.036H124.047H124.058H124.069H124.08H124.09H124.101H124.112H124.123H124.134H124.145H124.156H124.166H124.177H124.188H124.199H124.21H124.221H124.232H124.243H124.253H124.264H124.275H124.286H124.297H124.308H124.319H124.33H124.341H124.352H124.363H124.374H124.385H124.396H124.407H124.418H124.429H124.44H124.451H124.462H124.473H124.484H124.495H124.506H124.517H124.528H124.539H124.55H124.561H124.572H124.583H124.594H124.605H124.616H124.627H124.638H124.649H124.661H124.672H124.683H124.694H124.705H124.716H124.727H124.738H124.75H124.761H124.772H124.783H124.794H124.805H124.817H124.828H124.839H124.85H124.861H124.873H124.884H124.895H124.906H124.918H124.929H124.94H124.951H124.963H124.974H124.985H124.997H125.008H125.019H125.031H125.042H125.053H125.065H125.076H125.087H125.099H125.11H125.122H125.133H125.144H125.156H125.167H125.179H125.19H125.201H125.213H125.224H125.236H125.247H125.259H125.27H125.282H125.293H125.305H125.316H125.328H125.339H125.351H125.362H125.374H125.386H125.397H125.409H125.42H125.432H125.444H125.455H125.467H125.478H125.49H125.502H125.513H125.525H125.537H125.548H125.56H125.572H125.584H125.595H125.607H125.619C151.52 231 175.465 221.692 191.327 205.017L191.331 205.013C210.669 184.465 213.218 157.581 212.873 142.943C214.468 141.202 215.259 139.088 215.657 136.701L215.667 136.637L215.67 136.572L216.472 114.108L216.479 113.909L216.409 113.722C215.18 110.445 213.497 107.446 210.498 105.28C210.203 105.005 209.91 104.858 209.722 104.764L209.702 104.754C209.699 104.753 209.695 104.751 209.692 104.749C210.093 99.0761 210.656 87.4981 210.656 75.2631C210.656 62.6399 210.058 49.1985 208.024 40.8434C206.784 35.0694 204.302 30.5066 201.383 27.1707L201.374 27.1607L201.365 27.1509C196.588 21.9752 190.324 19.856 186.92 18.9613C184.22 12.8056 177.59 8.37712 170.546 8.37712C160.767 8.37712 152.698 16.4463 152.698 26.2247C152.698 36.003 160.767 44.0722 170.546 44.0722ZM39.5731 96.4229C39.5731 92.1332 43.1646 88.1968 47.7991 88.1968C52.4616 88.1968 56.0252 91.7604 56.0252 96.4229C56.0252 100.713 52.4336 104.649 47.7991 104.649C43.1646 104.649 39.5731 100.713 39.5731 96.4229Z" fill="#1C003F" stroke="black" stroke-width="2"/>
</svg>
